HIERARCHY
ROOT hip
{
  OFFSET 0 0 0
  CHANNELS 6 Xposition Yposition Zposition Zrotation Yrotation Xrotation
  JOINT abdomen
  {
    OFFSET 0 20.6881 -0.73152
    CHANNELS 3 Zrotation Xrotation Yrotation
    JOINT chest
    {
      OFFSET 0 11.7043 -0.48768
      CHANNELS 3 Zrotation Xrotation Yrotation
      JOINT neck
      {
        OFFSET 0 22.1894 -2.19456
        CHANNELS 3 Zrotation Xrotation Yrotation
        JOINT head
        {
          OFFSET -0.24384 7.07133 1.2192
          CHANNELS 3 Zrotation Xrotation Yrotation
          JOINT leftEye
          {
            OFFSET 4.14528 8.04674 8.04672
            CHANNELS 3 Zrotation Xrotation Yrotation
            End Site
            {
              OFFSET 1 0 0
            }
          }
          JOINT rightEye
          {
            OFFSET -3.6576 8.04674 8.04672
            CHANNELS 3 Zrotation Xrotation Yrotation
            End Site
            {
              OFFSET 1 0 0
            }
          }
        }
      }
      JOINT rCollar
      {
        OFFSET -2.68224 19.2634 -4.8768
        CHANNELS 3 Zrotation Xrotation Yrotation
        JOINT rShldr
        {
          OFFSET -8.77824 -1.95073 1.46304
          CHANNELS 3 Zrotation Xrotation Yrotation
          JOINT rForeArm
          {
            OFFSET -28.1742 -1.7115 0.48768
            CHANNELS 3 Zrotation Xrotation Yrotation
            JOINT rHand
            {
              OFFSET -22.5879 0.773209 7.07136
              CHANNELS 3 Zrotation Xrotation Yrotation
              JOINT rThumb1
              {
                OFFSET -1.2192 -0.487915 3.41376
                CHANNELS 3 Zrotation Xrotation Yrotation
                JOINT rThumb2
                {
                  OFFSET -3.37035 -0.52449 3.41376
                  CHANNELS 3 Zrotation Xrotation Yrotation
                  End Site
                  {
                    OFFSET -1.78271 -1.18214 1.43049
                  }
                }
              }
              JOINT rIndex1
              {
                OFFSET -7.75947 0.938293 5.60832
                CHANNELS 3 Zrotation Xrotation Yrotation
                JOINT rIndex2
                {
                  OFFSET -2.54057 -0.884171 1.56538
                  CHANNELS 3 Zrotation Xrotation Yrotation
                  End Site
                  {
                    OFFSET -1.62519 -0.234802 1.16502
                  }
                }
              }
              JOINT rMid1
              {
                OFFSET -8.24714 1.18213 3.41376
                CHANNELS 3 Zrotation Xrotation Yrotation
                JOINT rMid2
                {
                  OFFSET -3.10165 -0.590103 1.0647
                  CHANNELS 3 Zrotation Xrotation Yrotation
                  End Site
                  {
                    OFFSET -2.48547 -0.328903 0.83742
                  }
                }
              }
              JOINT rRing1
              {
                OFFSET -8.82822 0.546677 1.51678
                CHANNELS 3 Zrotation Xrotation Yrotation
                JOINT rRing2
                {
                  OFFSET -2.60934 -0.819778 -0.0198488
                  CHANNELS 3 Zrotation Xrotation Yrotation
                  End Site
                  {
                    OFFSET -2.33842 -0.294052 0.168128
                  }
                }
              }
              JOINT rPinky1
              {
                OFFSET -8.27202 -0.0477905 -0.4584
                CHANNELS 3 Zrotation Xrotation Yrotation
                JOINT rPinky2
                {
                  OFFSET -1.82734 -0.647385 -0.700984
                  CHANNELS 3 Zrotation Xrotation Yrotation
                  End Site
                  {
                    OFFSET -1.69225 -0.51767 -0.607171
                  }
                }
              }
            }
          }
        }
      }
      JOINT lCollar
      {
        OFFSET 2.68224 19.2634 -4.8768
        CHANNELS 3 Zrotation Xrotation Yrotation
        JOINT lShldr
        {
          OFFSET 8.77824 -1.95073 1.46304
          CHANNELS 3 Zrotation Xrotation Yrotation
          JOINT lForeArm
          {
            OFFSET 28.1742 -1.7115 0.48768
            CHANNELS 3 Zrotation Xrotation Yrotation
            JOINT lHand
            {
              OFFSET 22.5879 0.773209 7.07136
              CHANNELS 3 Zrotation Xrotation Yrotation
              JOINT lThumb1
              {
                OFFSET 1.2192 -0.487915 3.41376
                CHANNELS 3 Zrotation Xrotation Yrotation
                JOINT lThumb2
                {
                  OFFSET 3.37035 -0.52449 3.41376
                  CHANNELS 3 Zrotation Xrotation Yrotation
                  End Site
                  {
                    OFFSET 1.78271 -1.18214 1.43049
                  }
                }
              }
              JOINT lIndex1
              {
                OFFSET 7.75947 0.938293 5.60832
                CHANNELS 3 Zrotation Xrotation Yrotation
                JOINT lIndex2
                {
                  OFFSET 2.54057 -0.884171 1.56538
                  CHANNELS 3 Zrotation Xrotation Yrotation
                  End Site
                  {
                    OFFSET 1.62519 -0.234802 1.16502
                  }
                }
              }
              JOINT lMid1
              {
                OFFSET 8.24714 1.18213 3.41376
                CHANNELS 3 Zrotation Xrotation Yrotation
                JOINT lMid2
                {
                  OFFSET 3.10165 -0.590103 1.0647
                  CHANNELS 3 Zrotation Xrotation Yrotation
                  End Site
                  {
                    OFFSET 2.48547 -0.328903 0.83742
                  }
                }
              }
              JOINT lRing1
              {
                OFFSET 8.82822 0.546677 1.51678
                CHANNELS 3 Zrotation Xrotation Yrotation
                JOINT lRing2
                {
                  OFFSET 2.60934 -0.819778 -0.0198488
                  CHANNELS 3 Zrotation Xrotation Yrotation
                  End Site
                  {
                    OFFSET 2.33842 -0.294052 0.168128
                  }
                }
              }
              JOINT lPinky1
              {
                OFFSET 8.27202 -0.0477905 -0.4584
                CHANNELS 3 Zrotation Xrotation Yrotation
                JOINT lPinky2
                {
                  OFFSET 1.82734 -0.647385 -0.700984
                  CHANNELS 3 Zrotation Xrotation Yrotation
                  End Site
                  {
                    OFFSET 1.69225 -0.51767 -0.607171
                  }
                }
              }
            }
          }
        }
      }
    }
  }
  JOINT rButtock
  {
    OFFSET -8.77824 4.35084 1.2192
    CHANNELS 3 Zrotation Xrotation Yrotation
    JOINT rThigh
    {
      OFFSET 0 -1.70687 -2.19456
      CHANNELS 3 Zrotation Xrotation Yrotation
      JOINT rShin
      {
        OFFSET 0 -36.8199 0.73152
        CHANNELS 3 Zrotation Xrotation Yrotation
        JOINT rFoot
        {
          OFFSET 0.73152 -45.1104 -5.12064
          CHANNELS 3 Zrotation Xrotation Yrotation
          End Site
          {
            OFFSET -1.1221 -3.69964 12.103
          }
        }
      }
    }
  }
  JOINT lButtock
  {
    OFFSET 8.77824 4.35084 1.2192
    CHANNELS 3 Zrotation Xrotation Yrotation
    JOINT lThigh
    {
      OFFSET 0 -1.70687 -2.19456
      CHANNELS 3 Zrotation Xrotation Yrotation
      JOINT lShin
      {
        OFFSET 0 -36.8199 0.73152
        CHANNELS 3 Zrotation Xrotation Yrotation
        JOINT lFoot
        {
          OFFSET -0.73152 -45.1104 -5.12064
          CHANNELS 3 Zrotation Xrotation Yrotation
          End Site
          {
            OFFSET 1.1221 -3.69964 12.103
          }
        }
      }
    }
  }
}
MOTION
Frames:	4
Frame Time:	0.00833333
-46.2233 83.5224 -87.7065 -174.1 85.8209 -170.12 5.19319 -1.42944 -1.12492 2.92038 -5.68548 0.0610134 -8.94259 -10.8511 -5.24442 8.22708 19.4521 -6.84602 -0.0 0.0 0.0 -0.0 0.0 0.0 2.13635e-14 -2.29947e-12 1.41075e-13 51.4909 37.9519 34.7274 -27.9743 -30.4717 68.0245 -0.0685352 7.45187 1.05329 -4.23795e-10 2.40672e-10 5.72026e-11 -7.31839e-10 4.16034e-10 9.92804e-11 -4.23791e-10 2.40672e-10 5.71886e-11 7.73091 5.47488 0.417314 -4.23794e-10 2.40673e-10 5.71949e-11 2.90554 0.965183 0.102902 -4.23785e-10 2.40673e-10 5.71996e-11 10.2786 0.731801 0.0259123 -4.23801e-10 2.40673e-10 5.7204e-11 2.22167 -0.733487 -0.20892 2.12636e-14 -2.29946e-12 1.40942e-13 -53.4325 46.4348 -39.5576 27.9535 -30.3416 -67.7951 1.92875 -36.1805 5.89969 -3.53839e-10 2.78914e-10 -5.80548e-10 -5.93295e-10 4.92238e-10 -1.01298e-09 -3.53845e-10 2.78917e-10 -5.8054e-10 -7.73091 5.47488 -0.417314 -3.53839e-10 2.78915e-10 -5.80544e-10 -2.90554 0.965183 -0.102902 -3.5385e-10 2.78914e-10 -5.80552e-10 -10.2786 0.731801 -0.0259123 -3.5384e-10 2.78913e-10 -5.8056e-10 -2.22167 -0.733487 0.20892 -2.03217e-16 0.0 -3.88251e-19 -3.11332 -1.65762 -2.06278 0.00907194 10.0403 0.202456 -3.40842 -9.87342 -19.2335 2.03217e-16 0.0 3.88251e-19 7.5572 -8.03688 -12.6303 0.135501 18.3147 -0.462342 2.50875 -15.9799 5.34027
-46.303 83.5292 -87.7131 -174.552 85.8483 -170.49 5.25208 -1.35694 -1.36214 2.91892 -5.64534 -0.0103197 -8.81542 -11.2166 -5.1538 8.01646 19.4554 -6.66231 -0.0 0.0 0.0 -0.0 0.0 0.0 6.41696e-15 -2.13908e-12 1.16538e-13 50.1299 37.563 36.5828 -27.9018 -30.0556 67.3373 -0.0659961 7.31036 1.03307 -1.13469e-09 6.81558e-10 7.76746e-10 -1.95565e-09 1.17834e-09 1.34742e-09 -1.1347e-09 6.8156e-10 7.76736e-10 7.73091 5.47488 0.417314 -1.13469e-09 6.81559e-10 7.76739e-10 2.90554 0.965183 0.102902 -1.13469e-09 6.81559e-10 7.76745e-10 10.2786 0.731801 0.0259123 -1.1347e-09 6.81559e-10 7.76749e-10 2.22167 -0.733487 -0.20892 6.30563e-15 -2.13907e-12 1.16388e-13 -52.9063 45.6372 -40.263 27.8962 -30.0256 -67.2895 1.95881 -36.4141 5.9505 -8.86761e-10 9.07047e-10 -1.52301e-09 -1.48695e-09 1.58667e-09 -2.65348e-09 -8.86768e-10 9.0705e-10 -1.52301e-09 -7.73091 5.47488 -0.417314 -8.86762e-10 9.07049e-10 -1.52301e-09 -2.90554 0.965183 -0.102902 -8.86772e-10 9.07047e-10 -1.52302e-09 -10.2786 0.731801 -0.0259123 -8.86764e-10 9.07045e-10 -1.52303e-09 -2.22167 -0.733487 0.20892 -2.03217e-16 0.0 -3.88251e-19 -3.13072 -1.79797 -2.13756 0.00926323 10.0413 0.204115 -3.37041 -9.74792 -19.2581 2.03217e-16 0.0 3.88251e-19 7.54233 -8.21554 -12.6047 0.135839 18.337 -0.460603 2.47571 -15.9027 5.26723
-46.3911 83.5431 -87.7125 -174.976 85.9545 -170.803 5.27788 -1.28689 -1.4589 2.90231 -5.64732 -0.0418503 -8.67441 -11.5193 -5.06719 7.78788 19.3105 -6.4955 -0.0 0.0 0.0 -0.0 0.0 0.0 -2.01067e-14 -1.56726e-12 7.16689e-14 48.849 37.0505 38.4179 -27.8087 -29.5643 66.5379 -0.066145 7.31741 1.03408 -1.22285e-09 7.27785e-10 8.7312e-10 -2.10687e-09 1.25821e-09 1.51477e-09 -1.22285e-09 7.27787e-10 8.73111e-10 7.73091 5.47488 0.417314 -1.22285e-09 7.27785e-10 8.73117e-10 2.90554 0.965183 0.102902 -1.22284e-09 7.27786e-10 8.73121e-10 10.2786 0.731801 0.0259123 -1.22285e-09 7.27786e-10 8.73126e-10 2.22167 -0.733487 -0.20892 -2.0239e-14 -1.56726e-12 7.14724e-14 -52.1706 44.8965 -41.0742 27.8352 -29.7072 -66.7831 1.99434 -36.6882 6.01038 -9.08973e-10 1.04267e-09 -1.68492e-09 -1.52129e-09 1.82051e-09 -2.93243e-09 -9.08981e-10 1.04267e-09 -1.68492e-09 -7.73091 5.47488 -0.417314 -9.08974e-10 1.04267e-09 -1.68492e-09 -2.90554 0.965183 -0.102902 -9.08984e-10 1.04267e-09 -1.68493e-09 -10.2786 0.731801 -0.0259123 -9.08976e-10 1.04267e-09 -1.68494e-09 -2.22167 -0.733487 0.20892 -2.03217e-16 0.0 -3.88251e-19 -3.16357 -1.99672 -2.10063 0.00932881 10.0302 0.2044 -3.34583 -9.66334 -19.2703 2.03217e-16 0.0 3.88251e-19 7.52358 -8.37852 -12.5204 0.135849 18.3021 -0.457803 2.46518 -15.8295 5.25618
-46.4857 83.5623 -87.7094 -175.366 86.0862 -171.048 5.27592 -1.2073 -1.47354 2.8769 -5.67767 -0.0501195 -8.52243 -11.7819 -4.98059 7.55224 19.0501 -6.33664 -0.0 0.0 0.0 -0.0 0.0 0.0 -5.49361e-14 -6.5641e-13 8.26199e-15 47.5904 36.4536 40.2683 -27.6916 -29.0052 65.6592 -0.0675665 7.39584 1.04529 -9.60564e-10 5.53873e-10 6.32189e-10 -1.65439e-09 9.57413e-10 1.09713e-09 -9.60567e-10 5.53875e-10 6.3218e-10 7.73091 5.47488 0.417314 -9.60563e-10 5.53873e-10 6.32191e-10 2.90554 0.965183 0.102902 -9.60561e-10 5.53875e-10 6.32192e-10 10.2786 0.731801 0.0259123 -9.60571e-10 5.53876e-10 6.32199e-10 2.22167 -0.733487 -0.20892 -5.50979e-14 -6.56417e-13 7.99487e-15 -51.2817 44.174 -41.959 27.7688 -29.3791 -66.2671 2.03664 -37.0088 6.08105 -6.43928e-10 9.10938e-10 -1.41468e-09 -1.07218e-09 1.5868e-09 -2.45731e-09 -6.43936e-10 9.1094e-10 -1.41467e-09 -7.73091 5.47488 -0.417314 -6.43929e-10 9.1094e-10 -1.41467e-09 -2.90554 0.965183 -0.102902 -6.43937e-10 9.10937e-10 -1.41468e-09 -10.2786 0.731801 -0.0259123 -6.43929e-10 9.10935e-10 -1.41469e-09 -2.22167 -0.733487 0.20892 -2.03217e-16 0.0 -3.88251e-19 -3.21129 -2.23348 -1.99704 0.0093261 10.0105 0.203893 -3.3295 -9.60465 -19.2716 2.03217e-16 0.0 3.88251e-19 7.4997 -8.53427 -12.3922 0.135665 18.2285 -0.454098 2.46498 -15.7506 5.27574
